<mxfile host="app.diagrams.net" modified="2021-06-24T08:00:28.356Z" agent="5.0 (Windows NT 10.0; Win64; x64) AppleWebKit/537.36 (KHTML, like Gecko) Chrome/91.0.4472.77 Safari/537.36" etag="vrN3P3pLSr0RXflM3HNB" version="14.8.0" type="github">
  <diagram id="fYKfGPqdpj5STdfEeVyN" name="Page-1">
    <mxGraphModel dx="942" dy="582" grid="1" gridSize="10" guides="1" tooltips="1" connect="1" arrows="1" fold="1" page="1" pageScale="1" pageWidth="827" pageHeight="1169" math="0" shadow="0">
      <root>
        <mxCell id="0" />
        <mxCell id="1" parent="0" />
        <mxCell id="s__IYp2AZCWsRCQvnXPb-1" value="" style="verticalLabelPosition=bottom;html=1;verticalAlign=top;align=center;strokeColor=none;fillColor=#00BEF2;shape=mxgraph.azure.startup_task;pointerEvents=1;" vertex="1" parent="1">
          <mxGeometry x="100" y="270" width="70" height="60" as="geometry" />
        </mxCell>
        <mxCell id="s__IYp2AZCWsRCQvnXPb-2" value="" style="html=1;dashed=0;whitespace=wrap;fillColor=#2875E2;strokeColor=#ffffff;points=[[0.005,0.63,0],[0.1,0.2,0],[0.9,0.2,0],[0.5,0,0],[0.995,0.63,0],[0.72,0.99,0],[0.5,1,0],[0.28,0.99,0]];shape=mxgraph.kubernetes.icon;prIcon=api" vertex="1" parent="1">
          <mxGeometry x="90" y="70" width="80" height="70" as="geometry" />
        </mxCell>
        <mxCell id="s__IYp2AZCWsRCQvnXPb-3" value="" style="shape=datastore;whiteSpace=wrap;html=1;" vertex="1" parent="1">
          <mxGeometry x="390" y="168" width="70" height="70" as="geometry" />
        </mxCell>
        <mxCell id="s__IYp2AZCWsRCQvnXPb-4" value="" style="outlineConnect=0;fontColor=#232F3E;gradientColor=none;fillColor=#116D5B;strokeColor=none;dashed=0;verticalLabelPosition=bottom;verticalAlign=top;align=center;html=1;fontSize=12;fontStyle=0;aspect=fixed;shape=mxgraph.aws4.transfer_for_ftp_resource;" vertex="1" parent="1">
          <mxGeometry x="240" y="160" width="76" height="78" as="geometry" />
        </mxCell>
      </root>
    </mxGraphModel>
  </diagram>
</mxfile>
